<svg width="99" height="99" viewBox="0 0 99 99" fill="none" xmlns="http://www.w3.org/2000/svg">
<path d="M76.5099 63.9536H27.8921V29.7411C27.8921 28.7462 27.0863 27.9404 26.0914 27.9404H22.4901C21.4952 27.9404 20.6895 28.7462 20.6895 29.7411V67.5549C20.6895 69.5435 22.3022 71.1562 24.2908 71.1562H76.5099C77.5048 71.1562 78.3105 70.3505 78.3105 69.3556V65.7543C78.3105 64.7594 77.5048 63.9536 76.5099 63.9536ZM72.9086 31.5417H59.622C57.2158 31.5417 56.0105 34.4509 57.7121 36.1526L61.3585 39.7989L53.1013 48.0572L44.8442 39.8C43.4374 38.3933 41.1573 38.3933 39.7517 39.8L32.0212 47.5305C31.3178 48.2339 31.3178 49.3739 32.0212 50.0773L34.5669 52.623C35.2703 53.3263 36.4103 53.3263 37.1137 52.623L42.2974 47.4382L50.5545 55.6953C51.9613 57.1021 54.2414 57.1021 55.647 55.6953L66.451 44.8914L70.0973 48.5377C71.7989 50.2393 74.7081 49.034 74.7081 46.6279V33.3424C74.7092 32.3475 73.9034 31.5417 72.9086 31.5417Z" fill="url(#paint0_linear)"/>
<defs>
<linearGradient id="paint0_linear" x1="49.5" y1="27.9404" x2="49.5" y2="71.1562" gradientUnits="userSpaceOnUse">
<stop stop-color="#38EF7D"/>
<stop offset="1" stop-color="#11998E"/>
</linearGradient>
</defs>
</svg>
